<?xml version="1.0" encoding="utf-8" standalone="no"?>
<!DOCTYPE svg PUBLIC "-//W3C//DTD SVG 1.1//EN"
  "http://www.w3.org/Graphics/SVG/1.1/DTD/svg11.dtd">
<svg xmlns:xlink="http://www.w3.org/1999/xlink" width="820.482969pt" height="175.112049pt" viewBox="0 0 820.482969 175.112049" xmlns="http://www.w3.org/2000/svg" version="1.1">
 <metadata>
  <rdf:RDF xmlns:dc="http://purl.org/dc/elements/1.1/" xmlns:cc="http://creativecommons.org/ns#" xmlns:rdf="http://www.w3.org/1999/02/22-rdf-syntax-ns#">
   <cc:Work>
    <dc:type rdf:resource="http://purl.org/dc/dcmitype/StillImage"/>
    <dc:date>2026-04-22T07:53:55.929798</dc:date>
    <dc:format>image/svg+xml</dc:format>
    <dc:creator>
     <cc:Agent>
      <dc:title>Matplotlib v3.10.8, https://matplotlib.org/</dc:title>
     </cc:Agent>
    </dc:creator>
   </cc:Work>
  </rdf:RDF>
 </metadata>
 <defs>
  <style type="text/css">*{stroke-linejoin: round; stroke-linecap: butt}</style>
 </defs>
 <g id="figure_1">
  <g id="patch_1">
   <path d="M 0 175.112049 
L 820.482969 175.112049 
L 820.482969 0 
L 0 0 
z
" style="fill: #faf7f0"/>
  </g>
  <g id="axes_1">
   <g id="patch_2">
    <path d="M 51.612969 113.66736 
L 813.282969 113.66736 
L 813.282969 7.2 
L 51.612969 7.2 
z
" style="fill: #faf7f0"/>
   </g>
   <g id="matplotlib.axis_1">
    <g id="xtick_1">
     <g id="line2d_1"/>
     <g id="text_1">
      <text style="font-size: 14.5px; font-family: 'Helvetica Neue', 'Arial', 'DejaVu Sans', sans-serif; text-anchor: middle; fill: #2a2218" x="144.296794" y="128.021266" transform="rotate(-0 144.296794 128.021266)">ShellGameTouch</text>
     </g>
    </g>
    <g id="xtick_2">
     <g id="line2d_2"/>
     <g id="text_2">
      <text style="font-size: 14.5px; font-family: 'Helvetica Neue', 'Arial', 'DejaVu Sans', sans-serif; text-anchor: middle; fill: #2a2218" x="288.372381" y="128.021266" transform="rotate(-0 288.372381 128.021266)">InterceptMedium</text>
     </g>
    </g>
    <g id="xtick_3">
     <g id="line2d_3"/>
     <g id="text_3">
      <text style="font-size: 14.5px; font-family: 'Helvetica Neue', 'Arial', 'DejaVu Sans', sans-serif; text-anchor: middle; fill: #2a2218" x="432.447969" y="128.021266" transform="rotate(-0 432.447969 128.021266)">RememberColor3</text>
     </g>
    </g>
    <g id="xtick_4">
     <g id="line2d_4"/>
     <g id="text_4">
      <text style="font-size: 14.5px; font-family: 'Helvetica Neue', 'Arial', 'DejaVu Sans', sans-serif; text-anchor: middle; fill: #2a2218" x="576.523556" y="128.021266" transform="rotate(-0 576.523556 128.021266)">RememberColor5</text>
     </g>
    </g>
    <g id="xtick_5">
     <g id="line2d_5"/>
     <g id="text_5">
      <text style="font-size: 14.5px; font-family: 'Helvetica Neue', 'Arial', 'DejaVu Sans', sans-serif; text-anchor: middle; fill: #2a2218" x="720.599143" y="128.021266" transform="rotate(-0 720.599143 128.021266)">RememberColor9</text>
     </g>
    </g>
   </g>
   <g id="matplotlib.axis_2">
    <g id="ytick_1">
     <g id="line2d_6">
      <path d="M 51.612969 113.66736 
L 813.282969 113.66736 
" clip-path="url(#p72f50e1d63)" style="fill: none; stroke: #e6d7bd; stroke-width: 0.45; stroke-linecap: square"/>
     </g>
     <g id="line2d_7"/>
     <g id="text_6">
      <text style="font-size: 14px; font-family: 'Helvetica Neue', 'Arial', 'DejaVu Sans', sans-serif; text-anchor: end; fill: #8a7a66" x="47.612969" y="118.665797" transform="rotate(-0 47.612969 118.665797)">0</text>
     </g>
    </g>
    <g id="ytick_2">
     <g id="line2d_8">
      <path d="M 51.612969 91.110716 
L 813.282969 91.110716 
" clip-path="url(#p72f50e1d63)" style="fill: none; stroke: #e6d7bd; stroke-width: 0.45; stroke-linecap: square"/>
     </g>
     <g id="line2d_9"/>
     <g id="text_7">
      <text style="font-size: 14px; font-family: 'Helvetica Neue', 'Arial', 'DejaVu Sans', sans-serif; text-anchor: end; fill: #8a7a66" x="47.612969" y="96.109153" transform="rotate(-0 47.612969 96.109153)">25</text>
     </g>
    </g>
    <g id="ytick_3">
     <g id="line2d_10">
      <path d="M 51.612969 68.554072 
L 813.282969 68.554072 
" clip-path="url(#p72f50e1d63)" style="fill: none; stroke: #e6d7bd; stroke-width: 0.45; stroke-linecap: square"/>
     </g>
     <g id="line2d_11"/>
     <g id="text_8">
      <text style="font-size: 14px; font-family: 'Helvetica Neue', 'Arial', 'DejaVu Sans', sans-serif; text-anchor: end; fill: #8a7a66" x="47.612969" y="73.552509" transform="rotate(-0 47.612969 73.552509)">50</text>
     </g>
    </g>
    <g id="ytick_4">
     <g id="line2d_12">
      <path d="M 51.612969 45.997428 
L 813.282969 45.997428 
" clip-path="url(#p72f50e1d63)" style="fill: none; stroke: #e6d7bd; stroke-width: 0.45; stroke-linecap: square"/>
     </g>
     <g id="line2d_13"/>
     <g id="text_9">
      <text style="font-size: 14px; font-family: 'Helvetica Neue', 'Arial', 'DejaVu Sans', sans-serif; text-anchor: end; fill: #8a7a66" x="47.612969" y="50.995865" transform="rotate(-0 47.612969 50.995865)">75</text>
     </g>
    </g>
    <g id="ytick_5">
     <g id="line2d_14">
      <path d="M 51.612969 23.440784 
L 813.282969 23.440784 
" clip-path="url(#p72f50e1d63)" style="fill: none; stroke: #e6d7bd; stroke-width: 0.45; stroke-linecap: square"/>
     </g>
     <g id="line2d_15"/>
     <g id="text_10">
      <text style="font-size: 14px; font-family: 'Helvetica Neue', 'Arial', 'DejaVu Sans', sans-serif; text-anchor: end; fill: #8a7a66" x="47.612969" y="28.439221" transform="rotate(-0 47.612969 28.439221)">100</text>
     </g>
    </g>
    <g id="text_11">
     <text style="font-size: 13px; font-family: 'Helvetica Neue', 'Arial', 'DejaVu Sans', sans-serif; text-anchor: middle; fill: #8a7a66" x="16.702188" y="60.43368" transform="rotate(-90 16.702188 60.43368)">Success Rate (%)</text>
    </g>
   </g>
   <g id="patch_3">
    <path d="M 51.612969 113.66736 
L 813.282969 113.66736 
" style="fill: none; stroke: #e6d7bd; stroke-width: 0.6; stroke-linejoin: miter; stroke-linecap: square"/>
   </g>
   <g id="patch_4">
    <path d="M 86.234332 113.66736 
L 104.964159 113.66736 
L 104.964159 72.163135 
L 86.234332 72.163135 
z
" clip-path="url(#p72f50e1d63)" style="fill: #d8c8ad"/>
   </g>
   <g id="patch_5">
    <path d="M 230.30992 113.66736 
L 249.039746 113.66736 
L 249.039746 78.478995 
L 230.30992 78.478995 
z
" clip-path="url(#p72f50e1d63)" style="fill: #d8c8ad"/>
   </g>
   <g id="patch_6">
    <path d="M 374.385507 113.66736 
L 393.115333 113.66736 
L 393.115333 73.065401 
L 374.385507 73.065401 
z
" clip-path="url(#p72f50e1d63)" style="fill: #d8c8ad"/>
   </g>
   <g id="patch_7">
    <path d="M 518.461094 113.66736 
L 537.190921 113.66736 
L 537.190921 98.328842 
L 518.461094 98.328842 
z
" clip-path="url(#p72f50e1d63)" style="fill: #d8c8ad"/>
   </g>
   <g id="patch_8">
    <path d="M 662.536682 113.66736 
L 681.266508 113.66736 
L 681.266508 103.742437 
L 662.536682 103.742437 
z
" clip-path="url(#p72f50e1d63)" style="fill: #d8c8ad"/>
   </g>
   <g id="text_12">
    <text style="font-size: 11px; font-family: 'Helvetica Neue', 'Arial', 'DejaVu Sans', sans-serif; text-anchor: middle; fill: #8a7a66" x="95.599246" y="68.732619" transform="rotate(-0 95.599246 68.732619)">46</text>
   </g>
   <g id="text_13">
    <text style="font-size: 11px; font-family: 'Helvetica Neue', 'Arial', 'DejaVu Sans', sans-serif; text-anchor: middle; fill: #8a7a66" x="239.674833" y="75.048479" transform="rotate(-0 239.674833 75.048479)">39</text>
   </g>
   <g id="text_14">
    <text style="font-size: 11px; font-family: 'Helvetica Neue', 'Arial', 'DejaVu Sans', sans-serif; text-anchor: middle; fill: #8a7a66" x="383.75042" y="69.634885" transform="rotate(-0 383.75042 69.634885)">45</text>
   </g>
   <g id="text_15">
    <text style="font-size: 11px; font-family: 'Helvetica Neue', 'Arial', 'DejaVu Sans', sans-serif; text-anchor: middle; fill: #8a7a66" x="527.826008" y="94.898326" transform="rotate(-0 527.826008 94.898326)">17</text>
   </g>
   <g id="text_16">
    <text style="font-size: 11px; font-family: 'Helvetica Neue', 'Arial', 'DejaVu Sans', sans-serif; text-anchor: middle; fill: #8a7a66" x="671.901595" y="100.311921" transform="rotate(-0 671.901595 100.311921)">11</text>
   </g>
   <g id="patch_9">
    <path d="M 105.713352 113.66736 
L 124.443178 113.66736 
L 124.443178 71.260869 
L 105.713352 71.260869 
z
" clip-path="url(#p72f50e1d63)" style="fill: #c7b391"/>
   </g>
   <g id="patch_10">
    <path d="M 249.788939 113.66736 
L 268.518765 113.66736 
L 268.518765 101.035639 
L 249.788939 101.035639 
z
" clip-path="url(#p72f50e1d63)" style="fill: #c7b391"/>
   </g>
   <g id="patch_11">
    <path d="M 393.864526 113.66736 
L 412.594353 113.66736 
L 412.594353 60.43368 
L 393.864526 60.43368 
z
" clip-path="url(#p72f50e1d63)" style="fill: #c7b391"/>
   </g>
   <g id="patch_12">
    <path d="M 537.940114 113.66736 
L 556.66994 113.66736 
L 556.66994 99.231108 
L 537.940114 99.231108 
z
" clip-path="url(#p72f50e1d63)" style="fill: #c7b391"/>
   </g>
   <g id="patch_13">
    <path d="M 682.015701 113.66736 
L 700.745527 113.66736 
L 700.745527 108.253765 
L 682.015701 108.253765 
z
" clip-path="url(#p72f50e1d63)" style="fill: #c7b391"/>
   </g>
   <g id="text_17">
    <text style="font-size: 11px; font-family: 'Helvetica Neue', 'Arial', 'DejaVu Sans', sans-serif; text-anchor: middle; fill: #8a7a66" x="115.078265" y="67.830353" transform="rotate(-0 115.078265 67.830353)">47</text>
   </g>
   <g id="text_18">
    <text style="font-size: 11px; font-family: 'Helvetica Neue', 'Arial', 'DejaVu Sans', sans-serif; text-anchor: middle; fill: #8a7a66" x="259.153852" y="97.605124" transform="rotate(-0 259.153852 97.605124)">14</text>
   </g>
   <g id="text_19">
    <text style="font-size: 11px; font-family: 'Helvetica Neue', 'Arial', 'DejaVu Sans', sans-serif; text-anchor: middle; fill: #8a7a66" x="403.22944" y="57.003164" transform="rotate(-0 403.22944 57.003164)">59</text>
   </g>
   <g id="text_20">
    <text style="font-size: 11px; font-family: 'Helvetica Neue', 'Arial', 'DejaVu Sans', sans-serif; text-anchor: middle; fill: #8a7a66" x="547.305027" y="95.800592" transform="rotate(-0 547.305027 95.800592)">16</text>
   </g>
   <g id="text_21">
    <text style="font-size: 11px; font-family: 'Helvetica Neue', 'Arial', 'DejaVu Sans', sans-serif; text-anchor: middle; fill: #8a7a66" x="691.380614" y="104.82325" transform="rotate(-0 691.380614 104.82325)">6</text>
   </g>
   <g id="patch_14">
    <path d="M 125.192371 113.66736 
L 143.922198 113.66736 
L 143.922198 92.915247 
L 125.192371 92.915247 
z
" clip-path="url(#p72f50e1d63)" style="fill: #b29a73"/>
   </g>
   <g id="patch_15">
    <path d="M 269.267959 113.66736 
L 287.997785 113.66736 
L 287.997785 89.306184 
L 269.267959 89.306184 
z
" clip-path="url(#p72f50e1d63)" style="fill: #b29a73"/>
   </g>
   <g id="patch_16">
    <path d="M 413.343546 113.66736 
L 432.073372 113.66736 
L 432.073372 89.306184 
L 413.343546 89.306184 
z
" clip-path="url(#p72f50e1d63)" style="fill: #b29a73"/>
   </g>
   <g id="patch_17">
    <path d="M 557.419133 113.66736 
L 576.14896 113.66736 
L 576.14896 98.328842 
L 557.419133 98.328842 
z
" clip-path="url(#p72f50e1d63)" style="fill: #b29a73"/>
   </g>
   <g id="patch_18">
    <path d="M 701.494721 113.66736 
L 720.224547 113.66736 
L 720.224547 103.742437 
L 701.494721 103.742437 
z
" clip-path="url(#p72f50e1d63)" style="fill: #b29a73"/>
   </g>
   <g id="text_22">
    <text style="font-size: 11px; font-family: 'Helvetica Neue', 'Arial', 'DejaVu Sans', sans-serif; text-anchor: middle; fill: #8a7a66" x="134.557284" y="89.484732" transform="rotate(-0 134.557284 89.484732)">23</text>
   </g>
   <g id="text_23">
    <text style="font-size: 11px; font-family: 'Helvetica Neue', 'Arial', 'DejaVu Sans', sans-serif; text-anchor: middle; fill: #8a7a66" x="278.632872" y="85.875669" transform="rotate(-0 278.632872 85.875669)">27</text>
   </g>
   <g id="text_24">
    <text style="font-size: 11px; font-family: 'Helvetica Neue', 'Arial', 'DejaVu Sans', sans-serif; text-anchor: middle; fill: #8a7a66" x="422.708459" y="85.875669" transform="rotate(-0 422.708459 85.875669)">27</text>
   </g>
   <g id="text_25">
    <text style="font-size: 11px; font-family: 'Helvetica Neue', 'Arial', 'DejaVu Sans', sans-serif; text-anchor: middle; fill: #8a7a66" x="566.784046" y="94.898326" transform="rotate(-0 566.784046 94.898326)">17</text>
   </g>
   <g id="text_26">
    <text style="font-size: 11px; font-family: 'Helvetica Neue', 'Arial', 'DejaVu Sans', sans-serif; text-anchor: middle; fill: #8a7a66" x="710.859634" y="100.311921" transform="rotate(-0 710.859634 100.311921)">11</text>
   </g>
   <g id="patch_19">
    <path d="M 144.671391 113.66736 
L 163.401217 113.66736 
L 163.401217 83.89259 
L 144.671391 83.89259 
z
" clip-path="url(#p72f50e1d63)" style="fill: #9a7f56"/>
   </g>
   <g id="patch_20">
    <path d="M 288.746978 113.66736 
L 307.476804 113.66736 
L 307.476804 75.772198 
L 288.746978 75.772198 
z
" clip-path="url(#p72f50e1d63)" style="fill: #9a7f56"/>
   </g>
   <g id="patch_21">
    <path d="M 432.822565 113.66736 
L 451.552392 113.66736 
L 451.552392 82.088058 
L 432.822565 82.088058 
z
" clip-path="url(#p72f50e1d63)" style="fill: #9a7f56"/>
   </g>
   <g id="patch_22">
    <path d="M 576.898153 113.66736 
L 595.627979 113.66736 
L 595.627979 93.817513 
L 576.898153 93.817513 
z
" clip-path="url(#p72f50e1d63)" style="fill: #9a7f56"/>
   </g>
   <g id="patch_23">
    <path d="M 720.97374 113.66736 
L 739.703566 113.66736 
L 739.703566 100.133374 
L 720.97374 100.133374 
z
" clip-path="url(#p72f50e1d63)" style="fill: #9a7f56"/>
   </g>
   <g id="text_27">
    <text style="font-size: 11px; font-family: 'Helvetica Neue', 'Arial', 'DejaVu Sans', sans-serif; text-anchor: middle; fill: #8a7a66" x="154.036304" y="80.462074" transform="rotate(-0 154.036304 80.462074)">33</text>
   </g>
   <g id="text_28">
    <text style="font-size: 11px; font-family: 'Helvetica Neue', 'Arial', 'DejaVu Sans', sans-serif; text-anchor: middle; fill: #8a7a66" x="298.111891" y="72.341682" transform="rotate(-0 298.111891 72.341682)">42</text>
   </g>
   <g id="text_29">
    <text style="font-size: 11px; font-family: 'Helvetica Neue', 'Arial', 'DejaVu Sans', sans-serif; text-anchor: middle; fill: #8a7a66" x="442.187478" y="78.657542" transform="rotate(-0 442.187478 78.657542)">35</text>
   </g>
   <g id="text_30">
    <text style="font-size: 11px; font-family: 'Helvetica Neue', 'Arial', 'DejaVu Sans', sans-serif; text-anchor: middle; fill: #8a7a66" x="586.263066" y="90.386997" transform="rotate(-0 586.263066 90.386997)">22</text>
   </g>
   <g id="text_31">
    <text style="font-size: 11px; font-family: 'Helvetica Neue', 'Arial', 'DejaVu Sans', sans-serif; text-anchor: middle; fill: #8a7a66" x="730.338653" y="96.702858" transform="rotate(-0 730.338653 96.702858)">15</text>
   </g>
   <g id="patch_24">
    <path d="M 164.15041 113.66736 
L 182.880236 113.66736 
L 182.880236 34.267973 
L 164.15041 34.267973 
z
" clip-path="url(#p72f50e1d63)" style="fill: #7a5f3d"/>
   </g>
   <g id="patch_25">
    <path d="M 308.225997 113.66736 
L 326.955824 113.66736 
L 326.955824 92.012982 
L 308.225997 92.012982 
z
" clip-path="url(#p72f50e1d63)" style="fill: #7a5f3d"/>
   </g>
   <g id="patch_26">
    <path d="M 452.301585 113.66736 
L 471.031411 113.66736 
L 471.031411 73.967666 
L 452.301585 73.967666 
z
" clip-path="url(#p72f50e1d63)" style="fill: #7a5f3d"/>
   </g>
   <g id="patch_27">
    <path d="M 596.377172 113.66736 
L 615.106998 113.66736 
L 615.106998 86.599387 
L 596.377172 86.599387 
z
" clip-path="url(#p72f50e1d63)" style="fill: #7a5f3d"/>
   </g>
   <g id="patch_28">
    <path d="M 740.452759 113.66736 
L 759.182586 113.66736 
L 759.182586 95.622045 
L 740.452759 95.622045 
z
" clip-path="url(#p72f50e1d63)" style="fill: #7a5f3d"/>
   </g>
   <g id="text_32">
    <text style="font-size: 11px; font-family: 'Helvetica Neue', 'Arial', 'DejaVu Sans', sans-serif; text-anchor: middle; fill: #8a7a66" x="173.515323" y="30.837457" transform="rotate(-0 173.515323 30.837457)">88</text>
   </g>
   <g id="text_33">
    <text style="font-size: 11px; font-family: 'Helvetica Neue', 'Arial', 'DejaVu Sans', sans-serif; text-anchor: middle; fill: #8a7a66" x="317.590911" y="88.582466" transform="rotate(-0 317.590911 88.582466)">24</text>
   </g>
   <g id="text_34">
    <text style="font-size: 11px; font-family: 'Helvetica Neue', 'Arial', 'DejaVu Sans', sans-serif; text-anchor: middle; fill: #8a7a66" x="461.666498" y="70.537151" transform="rotate(-0 461.666498 70.537151)">44</text>
   </g>
   <g id="text_35">
    <text style="font-size: 11px; font-family: 'Helvetica Neue', 'Arial', 'DejaVu Sans', sans-serif; text-anchor: middle; fill: #8a7a66" x="605.742085" y="83.168871" transform="rotate(-0 605.742085 83.168871)">30</text>
   </g>
   <g id="text_36">
    <text style="font-size: 11px; font-family: 'Helvetica Neue', 'Arial', 'DejaVu Sans', sans-serif; text-anchor: middle; fill: #8a7a66" x="749.817673" y="92.191529" transform="rotate(-0 749.817673 92.191529)">20</text>
   </g>
   <g id="patch_29">
    <path d="M 183.629429 113.66736 
L 202.359256 113.66736 
L 202.359256 25.245315 
L 183.629429 25.245315 
z
" clip-path="url(#p72f50e1d63)" style="fill: #b5552a"/>
   </g>
   <g id="patch_30">
    <path d="M 327.705017 113.66736 
L 346.434843 113.66736 
L 346.434843 38.779302 
L 327.705017 38.779302 
z
" clip-path="url(#p72f50e1d63)" style="fill: #b5552a"/>
   </g>
   <g id="patch_31">
    <path d="M 471.780604 113.66736 
L 490.51043 113.66736 
L 490.51043 41.486099 
L 471.780604 41.486099 
z
" clip-path="url(#p72f50e1d63)" style="fill: #b5552a"/>
   </g>
   <g id="patch_32">
    <path d="M 615.856191 113.66736 
L 634.586018 113.66736 
L 634.586018 58.629148 
L 615.856191 58.629148 
z
" clip-path="url(#p72f50e1d63)" style="fill: #b5552a"/>
   </g>
   <g id="patch_33">
    <path d="M 759.931779 113.66736 
L 778.661605 113.66736 
L 778.661605 98.328842 
L 759.931779 98.328842 
z
" clip-path="url(#p72f50e1d63)" style="fill: #b5552a"/>
   </g>
   <g id="text_37">
    <text style="font-weight: 700; font-size: 11px; font-family: 'Helvetica Neue', 'Arial', 'DejaVu Sans', sans-serif; text-anchor: middle; fill: #b5552a" x="192.994343" y="21.814799" transform="rotate(-0 192.994343 21.814799)">98</text>
   </g>
   <g id="text_38">
    <text style="font-weight: 700; font-size: 11px; font-family: 'Helvetica Neue', 'Arial', 'DejaVu Sans', sans-serif; text-anchor: middle; fill: #b5552a" x="337.06993" y="35.348786" transform="rotate(-0 337.06993 35.348786)">83</text>
   </g>
   <g id="text_39">
    <text style="font-weight: 700; font-size: 11px; font-family: 'Helvetica Neue', 'Arial', 'DejaVu Sans', sans-serif; text-anchor: middle; fill: #b5552a" x="481.145517" y="38.055583" transform="rotate(-0 481.145517 38.055583)">80</text>
   </g>
   <g id="text_40">
    <text style="font-weight: 700; font-size: 11px; font-family: 'Helvetica Neue', 'Arial', 'DejaVu Sans', sans-serif; text-anchor: middle; fill: #b5552a" x="625.221105" y="55.198633" transform="rotate(-0 625.221105 55.198633)">61</text>
   </g>
   <g id="text_41">
    <text style="font-weight: 700; font-size: 11px; font-family: 'Helvetica Neue', 'Arial', 'DejaVu Sans', sans-serif; text-anchor: middle; fill: #b5552a" x="769.296692" y="94.898326" transform="rotate(-0 769.296692 94.898326)">17</text>
   </g>
   <g id="legend_1">
    <g id="patch_34">
     <path d="M 201.087852 163.008221 
L 215.787852 163.008221 
L 215.787852 152.928221 
L 201.087852 152.928221 
z
" style="fill: #d8c8ad"/>
    </g>
    <g id="text_42">
     <text style="font-size: 10.5px; font-family: 'Helvetica Neue', 'Arial', 'DejaVu Sans', sans-serif; text-anchor: start; fill: #2a2218" x="224.187852" y="161.538221" transform="rotate(-0 224.187852 161.538221)">Octo-small</text>
    </g>
    <g id="patch_35">
     <path d="M 292.534648 163.008221 
L 307.234648 163.008221 
L 307.234648 152.928221 
L 292.534648 152.928221 
z
" style="fill: #c7b391"/>
    </g>
    <g id="text_43">
     <text style="font-size: 10.5px; font-family: 'Helvetica Neue', 'Arial', 'DejaVu Sans', sans-serif; text-anchor: start; fill: #2a2218" x="315.634648" y="161.538221" transform="rotate(-0 315.634648 161.538221)">OpenVLA</text>
    </g>
    <g id="patch_36">
     <path d="M 377.172852 163.008221 
L 391.872852 163.008221 
L 391.872852 152.928221 
L 377.172852 152.928221 
z
" style="fill: #b29a73"/>
    </g>
    <g id="text_44">
     <text style="font-size: 10.5px; font-family: 'Helvetica Neue', 'Arial', 'DejaVu Sans', sans-serif; text-anchor: start; fill: #2a2218" x="400.272852" y="161.538221" transform="rotate(-0 400.272852 161.538221)">SpatialVLA</text>
    </g>
    <g id="patch_37">
     <path d="M 468.406367 163.008221 
L 483.106367 163.008221 
L 483.106367 152.928221 
L 468.406367 152.928221 
z
" style="fill: #9a7f56"/>
    </g>
    <g id="text_45">
     <text style="font-size: 10.5px; font-family: 'Helvetica Neue', 'Arial', 'DejaVu Sans', sans-serif; text-anchor: start; fill: #2a2218" x="491.506367" y="161.538221" transform="rotate(-0 491.506367 161.538221)">π0</text>
    </g>
    <g id="patch_38">
     <path d="M 520.675039 163.008221 
L 535.375039 163.008221 
L 535.375039 152.928221 
L 520.675039 152.928221 
z
" style="fill: #7a5f3d"/>
    </g>
    <g id="text_46">
     <text style="font-size: 10.5px; font-family: 'Helvetica Neue', 'Arial', 'DejaVu Sans', sans-serif; text-anchor: start; fill: #2a2218" x="543.775039" y="161.538221" transform="rotate(-0 543.775039 161.538221)">MemoryVLA</text>
    </g>
    <g id="patch_39">
     <path d="M 618.14457 163.008221 
L 632.84457 163.008221 
L 632.84457 152.928221 
L 618.14457 152.928221 
z
" style="fill: #b5552a"/>
    </g>
    <g id="text_47">
     <text style="font-size: 10.5px; font-family: 'Helvetica Neue', 'Arial', 'DejaVu Sans', sans-serif; text-anchor: start; fill: #2a2218" x="641.24457" y="161.538221" transform="rotate(-0 641.24457 161.538221)">Ours</text>
    </g>
   </g>
  </g>
 </g>
 <defs>
  <clipPath id="p72f50e1d63">
   <rect x="51.612969" y="7.2" width="761.67" height="106.46736"/>
  </clipPath>
 </defs>
</svg>
