<?xml version="1.0" encoding="utf-8" standalone="no"?>
<!DOCTYPE svg PUBLIC "-//W3C//DTD SVG 1.1//EN"
  "http://www.w3.org/Graphics/SVG/1.1/DTD/svg11.dtd">
<svg xmlns:xlink="http://www.w3.org/1999/xlink" width="836.082969pt" height="193.760336pt" viewBox="0 0 836.082969 193.760336" xmlns="http://www.w3.org/2000/svg" version="1.1">
 <metadata>
  <rdf:RDF xmlns:dc="http://purl.org/dc/elements/1.1/" xmlns:cc="http://creativecommons.org/ns#" xmlns:rdf="http://www.w3.org/1999/02/22-rdf-syntax-ns#">
   <cc:Work>
    <dc:type rdf:resource="http://purl.org/dc/dcmitype/StillImage"/>
    <dc:date>2026-04-22T12:58:36.430451</dc:date>
    <dc:format>image/svg+xml</dc:format>
    <dc:creator>
     <cc:Agent>
      <dc:title>Matplotlib v3.10.8, https://matplotlib.org/</dc:title>
     </cc:Agent>
    </dc:creator>
   </cc:Work>
  </rdf:RDF>
 </metadata>
 <defs>
  <style type="text/css">*{stroke-linejoin: round; stroke-linecap: butt}</style>
 </defs>
 <g id="figure_1">
  <g id="patch_1">
   <path d="M 0 193.760336 
L 836.082969 193.760336 
L 836.082969 0 
L 0 0 
z
" style="fill: #faf7f0"/>
  </g>
  <g id="axes_1">
   <g id="patch_2">
    <path d="M 50.612969 126.9636 
L 828.882969 126.9636 
L 828.882969 7.2 
L 50.612969 7.2 
z
" style="fill: #faf7f0"/>
   </g>
   <g id="matplotlib.axis_1">
    <g id="xtick_1">
     <g id="line2d_1"/>
     <g id="text_1">
      <text style="font-size: 14.5px; font-family: 'Helvetica Neue', 'Arial', 'DejaVu Sans', sans-serif; fill: #2a2218" transform="translate(89.478324 140.317506)">Tool Hang</text>
      <text style="font-size: 14.5px; font-family: 'Helvetica Neue', 'Arial', 'DejaVu Sans', sans-serif; fill: #2a2218" transform="translate(110.017347 157.127084)">(ph)</text>
     </g>
    </g>
    <g id="xtick_2">
     <g id="line2d_2"/>
     <g id="text_2">
      <text style="font-size: 14.5px; font-family: 'Helvetica Neue', 'Arial', 'DejaVu Sans', sans-serif; fill: #2a2218" transform="translate(245.844374 140.317506)">Transport</text>
      <text style="font-size: 14.5px; font-family: 'Helvetica Neue', 'Arial', 'DejaVu Sans', sans-serif; fill: #2a2218" transform="translate(264.371522 156.952631)">(ph)</text>
     </g>
    </g>
    <g id="xtick_3">
     <g id="line2d_3"/>
     <g id="text_3">
      <text style="font-size: 14.5px; font-family: 'Helvetica Neue', 'Arial', 'DejaVu Sans', sans-serif; fill: #2a2218" transform="translate(400.198549 140.317506)">Transport</text>
      <text style="font-size: 14.5px; font-family: 'Helvetica Neue', 'Arial', 'DejaVu Sans', sans-serif; fill: #2a2218" transform="translate(416.840698 156.952631)">(mh)</text>
     </g>
    </g>
    <g id="xtick_4">
     <g id="line2d_4"/>
     <g id="text_4">
      <text style="font-size: 14.5px; font-family: 'Helvetica Neue', 'Arial', 'DejaVu Sans', sans-serif; fill: #2a2218" transform="translate(562.064404 140.562194)">Square</text>
      <text style="font-size: 14.5px; font-family: 'Helvetica Neue', 'Arial', 'DejaVu Sans', sans-serif; fill: #2a2218" transform="translate(573.079873 157.197319)">(ph)</text>
     </g>
    </g>
    <g id="xtick_5">
     <g id="line2d_5"/>
     <g id="text_5">
      <text style="font-size: 14.5px; font-family: 'Helvetica Neue', 'Arial', 'DejaVu Sans', sans-serif; fill: #2a2218" transform="translate(716.41858 140.562194)">Square</text>
      <text style="font-size: 14.5px; font-family: 'Helvetica Neue', 'Arial', 'DejaVu Sans', sans-serif; fill: #2a2218" transform="translate(725.549049 157.197319)">(mh)</text>
     </g>
    </g>
   </g>
   <g id="matplotlib.axis_2">
    <g id="ytick_1">
     <g id="line2d_6">
      <path d="M 50.612969 126.9636 
L 828.882969 126.9636 
" clip-path="url(#p5c73638e43)" style="fill: none; stroke: #e6d7bd; stroke-width: 0.45; stroke-linecap: square"/>
     </g>
     <g id="line2d_7"/>
     <g id="text_6">
      <text style="font-size: 14px; font-family: 'Helvetica Neue', 'Arial', 'DejaVu Sans', sans-serif; text-anchor: end; fill: #8a7a66" x="47.612969" y="131.962038" transform="rotate(-0 47.612969 131.962038)">0</text>
     </g>
    </g>
    <g id="ytick_2">
     <g id="line2d_8">
      <path d="M 50.612969 76.216312 
L 828.882969 76.216312 
" clip-path="url(#p5c73638e43)" style="fill: none; stroke: #e6d7bd; stroke-width: 0.45; stroke-linecap: square"/>
     </g>
     <g id="line2d_9"/>
     <g id="text_7">
      <text style="font-size: 14px; font-family: 'Helvetica Neue', 'Arial', 'DejaVu Sans', sans-serif; text-anchor: end; fill: #8a7a66" x="47.612969" y="81.214749" transform="rotate(-0 47.612969 81.214749)">50</text>
     </g>
    </g>
    <g id="ytick_3">
     <g id="line2d_10">
      <path d="M 50.612969 25.469024 
L 828.882969 25.469024 
" clip-path="url(#p5c73638e43)" style="fill: none; stroke: #e6d7bd; stroke-width: 0.45; stroke-linecap: square"/>
     </g>
     <g id="line2d_11"/>
     <g id="text_8">
      <text style="font-size: 14px; font-family: 'Helvetica Neue', 'Arial', 'DejaVu Sans', sans-serif; text-anchor: end; fill: #8a7a66" x="47.612969" y="30.467461" transform="rotate(-0 47.612969 30.467461)">100</text>
     </g>
    </g>
    <g id="text_9">
     <text style="font-size: 13px; font-family: 'Helvetica Neue', 'Arial', 'DejaVu Sans', sans-serif; text-anchor: middle; fill: #8a7a66" x="16.702188" y="67.0818" transform="rotate(-90 16.702188 67.0818)">Success Rate (%)</text>
    </g>
   </g>
   <g id="patch_3">
    <path d="M 50.612969 126.9636 
L 828.882969 126.9636 
" style="fill: none; stroke: #e6d7bd; stroke-width: 0.6; stroke-linejoin: miter; stroke-linecap: square"/>
   </g>
   <g id="patch_4">
    <path d="M 60.621618 126.9636 
L 76.349497 126.9636 
L 76.349497 43.738047 
L 60.621618 43.738047 
z
" clip-path="url(#p5c73638e43)" style="fill: #e3d4b8"/>
   </g>
   <g id="text_10">
    <text style="font-size: 11px; font-family: 'Helvetica Neue', 'Arial', 'DejaVu Sans', sans-serif; text-anchor: middle; fill: #8a7a66" x="68.485557" y="40.352769" transform="rotate(-0 68.485557 40.352769)">82</text>
   </g>
   <g id="patch_5">
    <path d="M 78.494207 126.9636 
L 94.222085 126.9636 
L 94.222085 46.782885 
L 78.494207 46.782885 
z
" clip-path="url(#p5c73638e43)" style="fill: #d3c09d"/>
   </g>
   <g id="text_11">
    <text style="font-size: 11px; font-family: 'Helvetica Neue', 'Arial', 'DejaVu Sans', sans-serif; text-anchor: middle; fill: #8a7a66" x="86.358146" y="43.397606" transform="rotate(-0 86.358146 43.397606)">79</text>
   </g>
   <g id="patch_6">
    <path d="M 96.366796 126.9636 
L 112.094674 126.9636 
L 112.094674 42.723102 
L 96.366796 42.723102 
z
" clip-path="url(#p5c73638e43)" style="fill: #b9a37c"/>
   </g>
   <g id="text_12">
    <text style="font-size: 11px; font-family: 'Helvetica Neue', 'Arial', 'DejaVu Sans', sans-serif; text-anchor: middle; fill: #8a7a66" x="104.230735" y="39.337823" transform="rotate(-0 104.230735 39.337823)">83</text>
   </g>
   <g id="patch_7">
    <path d="M 114.239385 126.9636 
L 129.967263 126.9636 
L 129.967263 84.335878 
L 114.239385 84.335878 
z
" clip-path="url(#p5c73638e43)" style="fill: #9a8560"/>
   </g>
   <g id="text_13">
    <text style="font-size: 11px; font-family: 'Helvetica Neue', 'Arial', 'DejaVu Sans', sans-serif; text-anchor: middle; fill: #8a7a66" x="122.103324" y="80.950599" transform="rotate(-0 122.103324 80.950599)">42</text>
   </g>
   <g id="patch_8">
    <path d="M 132.111973 126.9636 
L 147.839851 126.9636 
L 147.839851 94.485336 
L 132.111973 94.485336 
z
" clip-path="url(#p5c73638e43)" style="fill: #7a6545"/>
   </g>
   <g id="text_14">
    <text style="font-size: 11px; font-family: 'Helvetica Neue', 'Arial', 'DejaVu Sans', sans-serif; text-anchor: middle; fill: #8a7a66" x="139.975912" y="91.100057" transform="rotate(-0 139.975912 91.100057)">32</text>
   </g>
   <g id="patch_9">
    <path d="M 149.984562 126.9636 
L 165.71244 126.9636 
L 165.71244 60.992125 
L 149.984562 60.992125 
z
" clip-path="url(#p5c73638e43)" style="fill: #d0a18c"/>
   </g>
   <g id="text_15">
    <text style="font-size: 11px; font-family: 'Helvetica Neue', 'Arial', 'DejaVu Sans', sans-serif; text-anchor: middle; fill: #8a7a66" x="157.848501" y="57.606847" transform="rotate(-0 157.848501 57.606847)">65</text>
   </g>
   <g id="patch_10">
    <path d="M 167.857151 126.9636 
L 183.585029 126.9636 
L 183.585029 46.782885 
L 167.857151 46.782885 
z
" clip-path="url(#p5c73638e43)" style="fill: #b5552a"/>
   </g>
   <g id="text_16">
    <text style="font-weight: 700; font-size: 11px; font-family: 'Helvetica Neue', 'Arial', 'DejaVu Sans', sans-serif; text-anchor: middle; fill: #b5552a" x="175.72109" y="43.397606" transform="rotate(-0 175.72109 43.397606)">79</text>
   </g>
   <g id="patch_11">
    <path d="M 214.975794 126.9636 
L 230.703672 126.9636 
L 230.703672 30.543753 
L 214.975794 30.543753 
z
" clip-path="url(#p5c73638e43)" style="fill: #e3d4b8"/>
   </g>
   <g id="text_17">
    <text style="font-size: 11px; font-family: 'Helvetica Neue', 'Arial', 'DejaVu Sans', sans-serif; text-anchor: middle; fill: #8a7a66" x="222.839733" y="27.158474" transform="rotate(-0 222.839733 27.158474)">95</text>
   </g>
   <g id="patch_12">
    <path d="M 232.848383 126.9636 
L 248.576261 126.9636 
L 248.576261 27.498915 
L 232.848383 27.498915 
z
" clip-path="url(#p5c73638e43)" style="fill: #d3c09d"/>
   </g>
   <g id="text_18">
    <text style="font-size: 11px; font-family: 'Helvetica Neue', 'Arial', 'DejaVu Sans', sans-serif; text-anchor: middle; fill: #8a7a66" x="240.712322" y="24.113637" transform="rotate(-0 240.712322 24.113637)">98</text>
   </g>
   <g id="patch_13">
    <path d="M 250.720971 126.9636 
L 266.448849 126.9636 
L 266.448849 26.483969 
L 250.720971 26.483969 
z
" clip-path="url(#p5c73638e43)" style="fill: #b9a37c"/>
   </g>
   <g id="text_19">
    <text style="font-size: 11px; font-family: 'Helvetica Neue', 'Arial', 'DejaVu Sans', sans-serif; text-anchor: middle; fill: #8a7a66" x="258.58491" y="23.098691" transform="rotate(-0 258.58491 23.098691)">99</text>
   </g>
   <g id="patch_14">
    <path d="M 268.59356 126.9636 
L 284.321438 126.9636 
L 284.321438 32.573644 
L 268.59356 32.573644 
z
" clip-path="url(#p5c73638e43)" style="fill: #9a8560"/>
   </g>
   <g id="text_20">
    <text style="font-size: 11px; font-family: 'Helvetica Neue', 'Arial', 'DejaVu Sans', sans-serif; text-anchor: middle; fill: #8a7a66" x="276.457499" y="29.188365" transform="rotate(-0 276.457499 29.188365)">93</text>
   </g>
   <g id="patch_15">
    <path d="M 286.466149 126.9636 
L 302.194027 126.9636 
L 302.194027 35.618481 
L 286.466149 35.618481 
z
" clip-path="url(#p5c73638e43)" style="fill: #7a6545"/>
   </g>
   <g id="text_21">
    <text style="font-size: 11px; font-family: 'Helvetica Neue', 'Arial', 'DejaVu Sans', sans-serif; text-anchor: middle; fill: #8a7a66" x="294.330088" y="32.233203" transform="rotate(-0 294.330088 32.233203)">90</text>
   </g>
   <g id="patch_16">
    <path d="M 304.338737 126.9636 
L 320.066616 126.9636 
L 320.066616 37.648373 
L 304.338737 37.648373 
z
" clip-path="url(#p5c73638e43)" style="fill: #d0a18c"/>
   </g>
   <g id="text_22">
    <text style="font-size: 11px; font-family: 'Helvetica Neue', 'Arial', 'DejaVu Sans', sans-serif; text-anchor: middle; fill: #8a7a66" x="312.202676" y="34.263094" transform="rotate(-0 312.202676 34.263094)">88</text>
   </g>
   <g id="patch_17">
    <path d="M 322.211326 126.9636 
L 337.939204 126.9636 
L 337.939204 38.663319 
L 322.211326 38.663319 
z
" clip-path="url(#p5c73638e43)" style="fill: #b5552a"/>
   </g>
   <g id="text_23">
    <text style="font-weight: 700; font-size: 11px; font-family: 'Helvetica Neue', 'Arial', 'DejaVu Sans', sans-serif; text-anchor: middle; fill: #b5552a" x="330.075265" y="35.27804" transform="rotate(-0 330.075265 35.27804)">87</text>
   </g>
   <g id="patch_18">
    <path d="M 369.329969 126.9636 
L 385.057847 126.9636 
L 385.057847 52.872559 
L 369.329969 52.872559 
z
" clip-path="url(#p5c73638e43)" style="fill: #e3d4b8"/>
   </g>
   <g id="text_24">
    <text style="font-size: 11px; font-family: 'Helvetica Neue', 'Arial', 'DejaVu Sans', sans-serif; text-anchor: middle; fill: #8a7a66" x="377.193908" y="49.487281" transform="rotate(-0 377.193908 49.487281)">73</text>
   </g>
   <g id="patch_19">
    <path d="M 387.202558 126.9636 
L 402.930436 126.9636 
L 402.930436 45.767939 
L 387.202558 45.767939 
z
" clip-path="url(#p5c73638e43)" style="fill: #d3c09d"/>
   </g>
   <g id="text_25">
    <text style="font-size: 11px; font-family: 'Helvetica Neue', 'Arial', 'DejaVu Sans', sans-serif; text-anchor: middle; fill: #8a7a66" x="395.066497" y="42.38266" transform="rotate(-0 395.066497 42.38266)">80</text>
   </g>
   <g id="patch_20">
    <path d="M 405.075147 126.9636 
L 420.803025 126.9636 
L 420.803025 38.663319 
L 405.075147 38.663319 
z
" clip-path="url(#p5c73638e43)" style="fill: #b9a37c"/>
   </g>
   <g id="text_26">
    <text style="font-size: 11px; font-family: 'Helvetica Neue', 'Arial', 'DejaVu Sans', sans-serif; text-anchor: middle; fill: #8a7a66" x="412.939086" y="35.27804" transform="rotate(-0 412.939086 35.27804)">87</text>
   </g>
   <g id="patch_21">
    <path d="M 422.947735 126.9636 
L 438.675613 126.9636 
L 438.675613 68.096746 
L 422.947735 68.096746 
z
" clip-path="url(#p5c73638e43)" style="fill: #9a8560"/>
   </g>
   <g id="text_27">
    <text style="font-size: 11px; font-family: 'Helvetica Neue', 'Arial', 'DejaVu Sans', sans-serif; text-anchor: middle; fill: #8a7a66" x="430.811674" y="64.711467" transform="rotate(-0 430.811674 64.711467)">58</text>
   </g>
   <g id="patch_22">
    <path d="M 440.820324 126.9636 
L 456.548202 126.9636 
L 456.548202 71.141583 
L 440.820324 71.141583 
z
" clip-path="url(#p5c73638e43)" style="fill: #7a6545"/>
   </g>
   <g id="text_28">
    <text style="font-size: 11px; font-family: 'Helvetica Neue', 'Arial', 'DejaVu Sans', sans-serif; text-anchor: middle; fill: #8a7a66" x="448.684263" y="67.756304" transform="rotate(-0 448.684263 67.756304)">55</text>
   </g>
   <g id="patch_23">
    <path d="M 458.692913 126.9636 
L 474.420791 126.9636 
L 474.420791 74.18642 
L 458.692913 74.18642 
z
" clip-path="url(#p5c73638e43)" style="fill: #d0a18c"/>
   </g>
   <g id="text_29">
    <text style="font-size: 11px; font-family: 'Helvetica Neue', 'Arial', 'DejaVu Sans', sans-serif; text-anchor: middle; fill: #8a7a66" x="466.556852" y="70.801142" transform="rotate(-0 466.556852 70.801142)">52</text>
   </g>
   <g id="patch_24">
    <path d="M 476.565502 126.9636 
L 492.29338 126.9636 
L 492.29338 56.932342 
L 476.565502 56.932342 
z
" clip-path="url(#p5c73638e43)" style="fill: #b5552a"/>
   </g>
   <g id="text_30">
    <text style="font-weight: 700; font-size: 11px; font-family: 'Helvetica Neue', 'Arial', 'DejaVu Sans', sans-serif; text-anchor: middle; fill: #b5552a" x="484.429441" y="53.547064" transform="rotate(-0 484.429441 53.547064)">69</text>
   </g>
   <g id="patch_25">
    <path d="M 523.684145 126.9636 
L 539.412023 126.9636 
L 539.412023 27.498915 
L 523.684145 27.498915 
z
" clip-path="url(#p5c73638e43)" style="fill: #e3d4b8"/>
   </g>
   <g id="text_31">
    <text style="font-size: 11px; font-family: 'Helvetica Neue', 'Arial', 'DejaVu Sans', sans-serif; text-anchor: middle; fill: #8a7a66" x="531.548084" y="24.113637" transform="rotate(-0 531.548084 24.113637)">98</text>
   </g>
   <g id="patch_26">
    <path d="M 541.556733 126.9636 
L 557.284611 126.9636 
L 557.284611 28.513861 
L 541.556733 28.513861 
z
" clip-path="url(#p5c73638e43)" style="fill: #d3c09d"/>
   </g>
   <g id="text_32">
    <text style="font-size: 11px; font-family: 'Helvetica Neue', 'Arial', 'DejaVu Sans', sans-serif; text-anchor: middle; fill: #8a7a66" x="549.420672" y="25.128582" transform="rotate(-0 549.420672 25.128582)">97</text>
   </g>
   <g id="patch_27">
    <path d="M 559.429322 126.9636 
L 575.1572 126.9636 
L 575.1572 26.483969 
L 559.429322 26.483969 
z
" clip-path="url(#p5c73638e43)" style="fill: #b9a37c"/>
   </g>
   <g id="text_33">
    <text style="font-size: 11px; font-family: 'Helvetica Neue', 'Arial', 'DejaVu Sans', sans-serif; text-anchor: middle; fill: #8a7a66" x="567.293261" y="23.098691" transform="rotate(-0 567.293261 23.098691)">99</text>
   </g>
   <g id="patch_28">
    <path d="M 577.301911 126.9636 
L 593.029789 126.9636 
L 593.029789 39.678264 
L 577.301911 39.678264 
z
" clip-path="url(#p5c73638e43)" style="fill: #9a8560"/>
   </g>
   <g id="text_34">
    <text style="font-size: 11px; font-family: 'Helvetica Neue', 'Arial', 'DejaVu Sans', sans-serif; text-anchor: middle; fill: #8a7a66" x="585.16585" y="36.292986" transform="rotate(-0 585.16585 36.292986)">86</text>
   </g>
   <g id="patch_29">
    <path d="M 595.174499 126.9636 
L 610.902378 126.9636 
L 610.902378 35.618481 
L 595.174499 35.618481 
z
" clip-path="url(#p5c73638e43)" style="fill: #7a6545"/>
   </g>
   <g id="text_35">
    <text style="font-size: 11px; font-family: 'Helvetica Neue', 'Arial', 'DejaVu Sans', sans-serif; text-anchor: middle; fill: #8a7a66" x="603.038438" y="32.233203" transform="rotate(-0 603.038438 32.233203)">90</text>
   </g>
   <g id="patch_30">
    <path d="M 613.047088 126.9636 
L 628.774966 126.9636 
L 628.774966 29.528807 
L 613.047088 29.528807 
z
" clip-path="url(#p5c73638e43)" style="fill: #d0a18c"/>
   </g>
   <g id="text_36">
    <text style="font-size: 11px; font-family: 'Helvetica Neue', 'Arial', 'DejaVu Sans', sans-serif; text-anchor: middle; fill: #8a7a66" x="620.911027" y="26.143528" transform="rotate(-0 620.911027 26.143528)">96</text>
   </g>
   <g id="patch_31">
    <path d="M 630.919677 126.9636 
L 646.647555 126.9636 
L 646.647555 27.498915 
L 630.919677 27.498915 
z
" clip-path="url(#p5c73638e43)" style="fill: #b5552a"/>
   </g>
   <g id="text_37">
    <text style="font-weight: 700; font-size: 11px; font-family: 'Helvetica Neue', 'Arial', 'DejaVu Sans', sans-serif; text-anchor: middle; fill: #b5552a" x="638.783616" y="24.113637" transform="rotate(-0 638.783616 24.113637)">98</text>
   </g>
   <g id="patch_32">
    <path d="M 678.03832 126.9636 
L 693.766198 126.9636 
L 693.766198 35.618481 
L 678.03832 35.618481 
z
" clip-path="url(#p5c73638e43)" style="fill: #e3d4b8"/>
   </g>
   <g id="text_38">
    <text style="font-size: 11px; font-family: 'Helvetica Neue', 'Arial', 'DejaVu Sans', sans-serif; text-anchor: middle; fill: #8a7a66" x="685.902259" y="32.233203" transform="rotate(-0 685.902259 32.233203)">90</text>
   </g>
   <g id="patch_33">
    <path d="M 695.910909 126.9636 
L 711.638787 126.9636 
L 711.638787 39.678264 
L 695.910909 39.678264 
z
" clip-path="url(#p5c73638e43)" style="fill: #d3c09d"/>
   </g>
   <g id="text_39">
    <text style="font-size: 11px; font-family: 'Helvetica Neue', 'Arial', 'DejaVu Sans', sans-serif; text-anchor: middle; fill: #8a7a66" x="703.774848" y="36.292986" transform="rotate(-0 703.774848 36.292986)">86</text>
   </g>
   <g id="patch_34">
    <path d="M 713.783497 126.9636 
L 729.511375 126.9636 
L 729.511375 38.663319 
L 713.783497 38.663319 
z
" clip-path="url(#p5c73638e43)" style="fill: #b9a37c"/>
   </g>
   <g id="text_40">
    <text style="font-size: 11px; font-family: 'Helvetica Neue', 'Arial', 'DejaVu Sans', sans-serif; text-anchor: middle; fill: #8a7a66" x="721.647436" y="35.27804" transform="rotate(-0 721.647436 35.27804)">87</text>
   </g>
   <g id="patch_35">
    <path d="M 731.656086 126.9636 
L 747.383964 126.9636 
L 747.383964 56.932342 
L 731.656086 56.932342 
z
" clip-path="url(#p5c73638e43)" style="fill: #9a8560"/>
   </g>
   <g id="text_41">
    <text style="font-size: 11px; font-family: 'Helvetica Neue', 'Arial', 'DejaVu Sans', sans-serif; text-anchor: middle; fill: #8a7a66" x="739.520025" y="53.547064" transform="rotate(-0 739.520025 53.547064)">69</text>
   </g>
   <g id="patch_36">
    <path d="M 749.528675 126.9636 
L 765.256553 126.9636 
L 765.256553 60.992125 
L 749.528675 60.992125 
z
" clip-path="url(#p5c73638e43)" style="fill: #7a6545"/>
   </g>
   <g id="text_42">
    <text style="font-size: 11px; font-family: 'Helvetica Neue', 'Arial', 'DejaVu Sans', sans-serif; text-anchor: middle; fill: #8a7a66" x="757.392614" y="57.606847" transform="rotate(-0 757.392614 57.606847)">65</text>
   </g>
   <g id="patch_37">
    <path d="M 767.401264 126.9636 
L 783.129142 126.9636 
L 783.129142 44.752993 
L 767.401264 44.752993 
z
" clip-path="url(#p5c73638e43)" style="fill: #d0a18c"/>
   </g>
   <g id="text_43">
    <text style="font-size: 11px; font-family: 'Helvetica Neue', 'Arial', 'DejaVu Sans', sans-serif; text-anchor: middle; fill: #8a7a66" x="775.265203" y="41.367715" transform="rotate(-0 775.265203 41.367715)">81</text>
   </g>
   <g id="patch_38">
    <path d="M 785.273852 126.9636 
L 801.00173 126.9636 
L 801.00173 37.648373 
L 785.273852 37.648373 
z
" clip-path="url(#p5c73638e43)" style="fill: #b5552a"/>
   </g>
   <g id="text_44">
    <text style="font-weight: 700; font-size: 11px; font-family: 'Helvetica Neue', 'Arial', 'DejaVu Sans', sans-serif; text-anchor: middle; fill: #b5552a" x="793.137791" y="34.263094" transform="rotate(-0 793.137791 34.263094)">88</text>
   </g>
   <g id="legend_1">
    <g id="patch_39">
     <path d="M 158.042812 180.71643 
L 172.742812 180.71643 
L 172.742812 172.34268 
L 158.042812 172.34268 
z
" style="fill: #e3d4b8"/>
    </g>
    <g id="text_45">
     <text style="font-size: 10.5px; font-family: 'Helvetica Neue', 'Arial', 'DejaVu Sans', sans-serif; text-anchor: start; fill: #2a2218" x="177.992812" y="180.16518" transform="rotate(-0 177.992812 180.16518)">No-hist DP</text>
    </g>
    <g id="patch_40">
     <path d="M 240.028125 180.71643 
L 254.728125 180.71643 
L 254.728125 172.34268 
L 240.028125 172.34268 
z
" style="fill: #d3c09d"/>
    </g>
    <g id="text_46">
     <text style="font-size: 10.5px; font-family: 'Helvetica Neue', 'Arial', 'DejaVu Sans', sans-serif; text-anchor: start; fill: #2a2218" x="259.978125" y="180.16518" transform="rotate(-0 259.978125 180.16518)">Mid-hist DP</text>
    </g>
    <g id="patch_41">
     <path d="M 326.106797 180.71643 
L 340.806797 180.71643 
L 340.806797 172.34268 
L 326.106797 172.34268 
z
" style="fill: #b9a37c"/>
    </g>
    <g id="text_47">
     <text style="font-size: 10.5px; font-family: 'Helvetica Neue', 'Arial', 'DejaVu Sans', sans-serif; text-anchor: start; fill: #2a2218" x="346.056797" y="180.16518" transform="rotate(-0 346.056797 180.16518)">Mid-hist PTP</text>
    </g>
    <g id="patch_42">
     <path d="M 417.624141 180.71643 
L 432.324141 180.71643 
L 432.324141 172.34268 
L 417.624141 172.34268 
z
" style="fill: #9a8560"/>
    </g>
    <g id="text_48">
     <text style="font-size: 10.5px; font-family: 'Helvetica Neue', 'Arial', 'DejaVu Sans', sans-serif; text-anchor: start; fill: #2a2218" x="437.574141" y="180.16518" transform="rotate(-0 437.574141 180.16518)">Long-hist DP</text>
    </g>
    <g id="patch_43">
     <path d="M 509.730469 180.71643 
L 524.430469 180.71643 
L 524.430469 172.34268 
L 509.730469 172.34268 
z
" style="fill: #7a6545"/>
    </g>
    <g id="text_49">
     <text style="font-size: 10.5px; font-family: 'Helvetica Neue', 'Arial', 'DejaVu Sans', sans-serif; text-anchor: start; fill: #2a2218" x="529.680469" y="180.16518" transform="rotate(-0 529.680469 180.16518)">Long-hist PTP</text>
    </g>
    <g id="patch_44">
     <path d="M 607.275469 180.71643 
L 621.975469 180.71643 
L 621.975469 172.34268 
L 607.275469 172.34268 
z
" style="fill: #d0a18c"/>
    </g>
    <g id="text_50">
     <text style="font-size: 10.5px; font-family: 'Helvetica Neue', 'Arial', 'DejaVu Sans', sans-serif; text-anchor: start; fill: #2a2218" x="627.225469" y="180.16518" transform="rotate(-0 627.225469 180.16518)">BC-RNN</text>
    </g>
    <g id="patch_45">
     <path d="M 678.939609 180.71643 
L 693.639609 180.71643 
L 693.639609 172.34268 
L 678.939609 172.34268 
z
" style="fill: #b5552a"/>
    </g>
    <g id="text_51">
     <text style="font-weight: 700; font-size: 10.5px; font-family: 'Helvetica Neue', 'Arial', 'DejaVu Sans', sans-serif; text-anchor: start; fill: #b5552a" x="698.889609" y="180.16518" transform="rotate(-0 698.889609 180.16518)">Ours</text>
    </g>
   </g>
  </g>
 </g>
 <defs>
  <clipPath id="p5c73638e43">
   <rect x="50.612969" y="7.2" width="778.27" height="119.7636"/>
  </clipPath>
 </defs>
</svg>
